<svg xmlns="http://www.w3.org/2000/svg" xmlns:xlink="http://www.w3.org/1999/xlink" width="659px" height="151px" viewBox="0 0 659 151">
<path fill-rule="evenodd" fill="rgb(255, 255, 255)" d="M645.460,72.190 L645.460,23.354 L658.934,23.354 L658.934,72.190 L645.460,72.190 ZM625.462,72.190 L611.208,53.514 L611.208,72.190 L597.733,72.190 L597.733,23.354 L611.208,23.354 L611.208,39.729 L624.843,23.354 L641.579,23.354 L621.838,46.322 L642.198,72.190 L625.462,72.190 ZM576.943,63.400 L558.119,63.400 L554.646,72.190 L540.547,72.190 L561.175,23.9 L574.164,23.9 L594.864,72.190 L580.416,72.190 L576.943,63.400 ZM567.566,39.53 L562.78,52.865 L572.984,52.865 L567.566,39.53 ZM522.714,72.190 L497.638,72.190 L497.638,23.354 L522.574,23.354 C533.788,23.354 538.827,28.656 538.966,36.602 C539.46,41.164 537.271,44.174 533.815,46.657 C537.861,47.956 541.150,50.788 541.119,58.182 C541.83,66.609 534.313,72.190 522.714,72.190 ZM525.700,38.424 C525.700,35.704 523.547,34.239 519.588,34.239 L510.767,34.239 L510.767,42.821 L519.241,42.821 C523.337,42.821 525.700,41.425 525.700,38.564 L525.700,38.424 ZM527.646,56.702 C527.646,54.52 525.562,52.308 521.47,52.308 L510.767,52.308 L510.767,61.306 L521.185,61.306 C525.353,61.306 527.646,59.701 527.646,56.841 L527.646,56.702 ZM468.26,73.96 C454.273,73.96 445.590,66.51 445.590,50.773 L445.590,23.354 L459.203,23.354 L459.203,50.494 C459.203,57.540 462.745,60.886 468.163,60.886 C473.651,60.886 477.194,57.679 477.194,50.843 L477.194,23.354 L490.807,23.354 L490.807,50.424 C490.807,66.122 481.846,73.96 468.26,73.96 ZM421.165,73.26 C412.552,73.26 404.426,70.306 398.383,64.934 L405.884,55.934 C410.747,59.771 416.25,61.795 421.652,61.795 C425.333,61.795 427.277,60.539 427.277,58.447 L427.277,58.306 C427.277,56.215 425.680,55.168 419.12,53.563 C408.662,51.190 400.675,48.262 400.675,38.284 L400.675,38.145 C400.675,29.78 407.829,22.519 419.498,22.519 C427.764,22.519 434.223,24.752 439.502,29.7 L432.765,38.564 C428.320,35.356 423.457,33.751 419.151,33.751 C415.886,33.751 414.289,35.75 414.289,36.890 L414.289,37.30 C414.289,39.262 415.956,40.239 422.762,41.775 C433.876,44.215 440.822,47.844 440.822,56.982 L440.822,57.121 C440.822,67.96 432.974,73.26 421.165,73.26 ZM382.551,72.190 L369.75,72.190 L369.75,35.216 L354.559,35.216 L354.559,23.354 L397.137,23.354 L397.137,35.216 L382.551,35.216 L382.551,72.190 ZM336.120,23.354 L349.595,23.354 L349.595,72.190 L336.120,72.190 L336.120,23.354 ZM315.918,44.146 L303.485,63.260 L303.208,63.260 L290.843,44.215 L290.843,72.190 L277.647,72.190 L277.647,23.354 L291.886,23.354 L303.485,42.263 L315.85,23.354 L329.324,23.354 L329.324,72.190 L315.918,72.190 L315.918,44.146 ZM256.856,63.400 L238.33,63.400 L234.559,72.190 L224.620,72.190 L220.460,72.190 L207.884,72.190 L193.629,53.514 L193.629,72.190 L180.155,72.190 L180.155,23.354 L193.629,23.354 L193.629,39.729 L207.265,23.354 L224.1,23.354 L204.260,46.322 L221.906,68.741 L241.89,23.9 L254.78,23.9 L274.776,72.190 L260.329,72.190 L256.856,63.400 ZM247.479,39.53 L241.992,52.865 L252.897,52.865 L247.479,39.53 ZM190.302,114.695 C183.737,113.104 180.37,111.156 180.37,105.448 L180.37,105.358 C180.37,100.48 184.443,96.374 190.568,96.374 C195.63,96.374 198.632,97.747 201.761,100.270 L198.853,104.385 C196.76,102.305 193.300,101.196 190.481,101.196 C187.306,101.196 185.456,102.835 185.456,104.871 L185.456,104.960 C185.456,107.349 186.866,108.413 192.815,109.826 C199.336,111.422 202.686,113.768 202.686,118.900 L202.686,118.990 C202.686,124.788 198.147,128.240 191.670,128.240 C186.954,128.240 182.503,126.601 178.803,123.282 L182.63,119.388 C185.16,121.953 188.12,123.415 191.803,123.415 C195.151,123.415 197.265,121.821 197.265,119.519 L197.265,119.432 C197.265,117.218 196.33,116.22 190.302,114.695 ZM84.235,120.515 L76.917,116.272 C75.976,115.727 75.397,114.718 75.397,113.628 L75.397,99.32 L82.715,103.274 C83.655,103.821 84.235,104.828 84.235,105.919 L84.235,120.515 ZM75.602,150.315 C50.569,150.315 28.391,137.862 14.838,118.817 L23.110,114.20 C32.265,126.529 45.733,135.648 61.325,139.151 L61.325,100.691 L57.198,103.84 C56.662,103.395 56.332,103.968 56.332,104.590 L56.332,108.425 L56.332,129.877 L49.15,125.633 C48.74,125.90 47.495,124.80 47.495,122.990 L47.495,108.710 L47.494,108.710 L47.494,107.247 C47.494,106.139 48.84,105.113 49.41,104.557 L61.325,97.434 L61.325,91.445 L51.379,91.445 L51.379,88.715 L61.325,88.715 L61.325,85.363 C61.325,84.277 61.903,83.272 62.840,82.729 L70.696,78.173 L70.696,88.715 L77.785,88.715 L77.785,89.531 C77.785,90.530 77.252,91.458 76.388,91.958 L70.696,95.259 L70.696,140.542 C72.318,140.664 73.950,140.747 75.602,140.747 C81.809,140.747 87.804,139.857 93.491,138.227 L93.491,101.191 L87.193,107.786 L87.193,106.204 C87.193,105.525 87.388,104.862 87.756,104.291 L96.39,91.445 L83.183,91.445 L83.183,88.715 L97.801,88.715 L101.639,82.761 L91.183,82.761 L91.183,80.29 L101.937,80.29 L101.937,74.76 L91.183,74.76 L91.183,71.345 L101.937,71.345 L101.937,62.90 C101.937,60.832 102.606,59.669 103.691,59.41 L140.234,37.851 C146.602,48.885 150.267,61.679 150.267,75.324 C150.267,116.674 116.773,150.315 75.602,150.315 ZM102.328,134.982 C106.321,133.176 110.99,130.979 113.615,128.435 L113.615,123.95 L102.328,123.95 L102.328,134.982 ZM102.328,120.365 L113.615,120.365 L113.615,111.896 L102.328,111.896 L102.328,120.365 ZM102.328,109.164 L113.615,109.164 L113.615,101.81 L102.328,101.81 L102.328,109.164 ZM100.991,98.350 L102.328,98.350 L113.615,98.350 L113.615,95.257 L113.615,93.663 L127.207,104.270 C127.957,104.855 128.396,105.756 128.396,106.709 L128.396,107.500 L122.453,104.434 L122.453,120.751 C133.768,108.983 140.741,92.976 140.741,75.324 C140.741,64.529 138.121,54.353 133.510,45.377 L112.351,57.645 C111.705,58.19 111.308,58.712 111.308,59.460 L111.308,71.345 L118.507,71.345 L118.507,65.735 L126.233,70.251 C127.251,70.846 127.877,71.939 127.877,73.124 L127.877,73.193 C127.877,73.680 127.484,74.76 126.998,74.76 L111.308,74.76 L111.308,80.29 L124.376,80.29 L124.376,82.761 L111.89,82.761 L105.405,88.715 L132.146,88.715 L132.146,91.445 L102.797,91.445 L96.204,98.350 L100.991,98.350 ZM57.235,76.792 L49.918,72.548 C48.977,72.5 48.397,70.996 48.397,69.905 L48.397,55.309 L55.715,59.551 C56.656,60.98 57.235,61.105 57.235,62.196 L57.235,76.792 ZM86.697,10.867 L86.697,23.255 L94.234,23.255 L100.508,23.255 C102.217,23.255 103.602,24.644 103.602,26.361 L103.602,50.512 C103.602,51.621 103.12,52.646 102.55,53.201 L94.234,57.736 L94.234,53.343 L86.698,53.343 L86.699,67.83 C86.699,68.175 86.119,69.181 85.179,69.728 L77.328,74.281 L77.327,53.343 L70.697,53.343 L70.697,59.295 C70.697,60.406 70.108,61.431 69.150,61.985 L61.329,66.521 L61.329,20.43 L70.149,23.255 L77.327,23.255 L77.327,9.948 C76.752,9.932 76.181,9.903 75.602,9.903 C63.915,9.903 52.956,13.8 43.473,18.423 L43.473,39.632 L47.340,39.632 L47.340,34.33 L55.310,38.672 C56.177,39.177 56.711,40.108 56.711,41.115 L56.711,41.147 C56.711,41.620 56.519,42.73 56.180,42.402 L43.704,54.519 L43.704,91.783 C43.704,93.44 43.35,94.207 41.951,94.835 L10.971,112.798 C4.604,101.763 0.938,88.970 0.938,75.324 C0.938,33.977 34.433,0.336 75.602,0.336 C100.636,0.336 122.815,12.786 136.368,31.833 L128.103,36.625 C118.330,23.273 103.635,13.788 86.697,10.867 ZM86.698,50.612 L94.234,50.612 L94.234,39.395 L86.698,39.395 L86.698,50.612 ZM86.698,36.664 L94.234,36.664 L94.234,25.986 L86.697,25.986 L86.698,36.664 ZM34.636,24.472 C19.895,36.467 10.464,54.785 10.464,75.324 C10.464,86.121 13.84,96.296 17.696,105.274 L33.291,96.231 C33.936,95.857 34.334,95.164 34.334,94.418 L34.334,63.621 L19.863,77.674 L19.863,76.368 C19.863,75.560 20.139,74.777 20.646,74.149 L46.341,42.364 L28.536,42.364 L28.536,39.632 L34.636,39.632 L34.636,24.472 ZM77.327,25.986 L70.697,25.986 L70.697,36.664 L77.327,36.664 L77.327,25.986 ZM77.327,39.395 L70.697,39.395 L70.697,50.612 L77.327,50.612 L77.327,39.395 ZM239.658,101.861 L229.876,101.861 L229.876,127.795 L224.412,127.795 L224.412,101.861 L214.629,101.861 L214.629,96.817 L239.658,96.817 L239.658,101.861 ZM258.36,114.433 C258.36,120.182 260.989,123.238 265.835,123.238 C270.638,123.238 273.591,120.361 273.591,114.653 L273.591,96.817 L279.10,96.817 L279.10,114.386 C279.10,123.635 273.810,128.282 265.747,128.282 C257.729,128.282 252.616,123.635 252.616,114.653 L252.616,96.817 L258.36,96.817 L258.36,114.433 ZM322.720,112.219 L322.720,112.306 C322.720,121.23 316.22,127.795 306.327,127.795 L294.828,127.795 L294.828,96.817 L306.327,96.817 C316.22,96.817 322.720,103.498 322.720,112.219 ZM300.247,122.838 L306.327,122.838 C312.806,122.838 317.37,118.459 317.37,112.395 L317.37,112.306 C317.37,106.244 312.806,101.775 306.327,101.775 L300.247,101.775 L300.247,122.838 ZM342.15,127.795 L336.596,127.795 L336.596,96.817 L342.15,96.817 L342.15,127.795 ZM371.974,96.287 C381.449,96.287 388.57,103.498 388.57,112.219 L388.57,112.306 C388.57,121.23 381.359,128.326 371.886,128.326 C362.413,128.326 355.802,121.113 355.802,112.395 L355.802,112.306 C355.802,103.589 362.501,96.287 371.974,96.287 ZM361.488,112.306 C361.488,118.325 365.849,123.282 371.974,123.282 C378.99,123.282 382.374,118.415 382.374,112.395 L382.374,112.306 C382.374,106.288 378.11,101.286 371.886,101.286 C365.761,101.286 361.488,106.199 361.488,112.219 L361.488,112.306 Z"/>
</svg>